<svg id="Flask" xmlns="http://www.w3.org/2000/svg" viewBox="0 0 519.39 491.71"><defs><style>.cls-1,.cls-2{fill:none;stroke:#00106d;stroke-width:16px;}.cls-1{stroke-miterlimit:10;}.cls-2{stroke-linecap:round;stroke-linejoin:round;}</style></defs><path class="cls-1" d="M54.49,8h292.3a46.49,46.49,0,0,1,46.49,46.49V372.42A111.29,111.29,0,0,1,282,483.71H119.29A111.29,111.29,0,0,1,8,372.42V54.49A46.49,46.49,0,0,1,54.49,8Z"/><path class="cls-2" d="M405.28,133.88h46.41a59.71,59.71,0,0,1,59.71,59.71v90.86a59.71,59.71,0,0,1-59.71,59.71H405.28a12,12,0,0,1-12-12V145.88A12,12,0,0,1,405.28,133.88Z"/></svg>